# xmcd CD database file
# Copyright (C) 1995-1998 Ti Kan
#
# Track frame offsets:
#	150
#	7900
#	24889
#	48011
#	64617
#	81546
#	100399
#	114515
#	133724
#	157151
#	170111
#	194768
#	208056
#	226482
#	249445
#
# Disc length: 3502 seconds
#
# Revision: 1
# Processed by: cddbd v1.4PL0 Copyright (c) Steve Scherf et al.
# Submitted via: CDex 1.30
#
DISCID=cd0dac0f
DTITLE=Tchê Garotos  - Ao Vivo
DYEAR=2001
DGENRE=Country
TTITLE0=Abertura
TTITLE1=Ajoelha e Chora
TTITLE2=Brasileira
TTITLE3=A vida que o "véio" mando
TTITLE4=Andei, sonhei
TTITLE5=Tio Laerte no bailão
TTITLE6=Tô voltando pra ficar
TTITLE7=Pout-porri - Amor de Infância - Você disse que não
TTITLE8=Nossa pegada
TTITLE9=Não sou perfeito
TTITLE10=Pout-pourri - Decisão - Razão e coração
TTITLE11=Hoje a cobra vai fumá
TTITLE12=No jeitinho brasileiro
TTITLE13=Nosso balanço
TTITLE14=Partindo rumo a fronteira
EXTD=\n\nYEAR: 2001  ID3G:   2
EXTT0=
EXTT1=
EXTT2=
EXTT3=
EXTT4=
EXTT5=
EXTT6=
EXTT7=
EXTT8=
EXTT9=
EXTT10=
EXTT11=
EXTT12=
EXTT13=
EXTT14=
PLAYORDER=
